<svg xmlns="http://www.w3.org/2000/svg" width="13.327" height="13.327" viewBox="0 0 13.327 13.327">
  <path id="Path_7" data-name="Path 7" d="M12.889,13.647,7.926,8.684a4.955,4.955,0,0,1-1.371.735,4.634,4.634,0,0,1-1.539.26A4.513,4.513,0,0,1,1.7,8.313,4.512,4.512,0,0,1,.336,5,4.512,4.512,0,0,1,1.7,1.686,4.512,4.512,0,0,1,5.015.32,4.512,4.512,0,0,1,8.329,1.686,4.513,4.513,0,0,1,9.695,5a4.579,4.579,0,0,1-.268,1.563A4.993,4.993,0,0,1,8.7,7.91l4.963,4.963ZM5.015,8.6A3.471,3.471,0,0,0,7.567,7.551,3.471,3.471,0,0,0,8.612,5,3.471,3.471,0,0,0,7.567,2.448,3.471,3.471,0,0,0,5.015,1.4,3.471,3.471,0,0,0,2.464,2.448,3.471,3.471,0,0,0,1.419,5,3.471,3.471,0,0,0,2.464,7.551,3.471,3.471,0,0,0,5.015,8.6Zm-1.3-1.7L4.2,5.306,2.884,4.253H4.507l.508-1.587.508,1.587H7.147L5.83,5.306,6.317,6.9l-1.3-.974Z" transform="translate(-0.336 -0.32)" fill="#fff"/>
</svg>
