<svg xmlns="http://www.w3.org/2000/svg" width="19.95" height="19.9" viewBox="0 0 19.95 19.9">
  <path id="Path_2" data-name="Path 2" d="M9.523,19.951A9.63,9.63,0,0,1,3.1,16.726,9.7,9.7,0,0,1,.523,10,9.7,9.7,0,0,1,3.1,3.276,9.63,9.63,0,0,1,9.523.051v3a6.664,6.664,0,0,0-4.3,2.325A6.868,6.868,0,0,0,3.523,10a6.868,6.868,0,0,0,1.7,4.625,6.665,6.665,0,0,0,4.3,2.325Zm2,0v-3A6.592,6.592,0,0,0,15.5,15a7.028,7.028,0,0,0,1.975-4h3a9.693,9.693,0,0,1-2.862,6.088A9.693,9.693,0,0,1,11.523,19.951ZM17.473,9A7.028,7.028,0,0,0,15.5,5a6.592,6.592,0,0,0-3.975-1.95v-3a9.693,9.693,0,0,1,6.088,2.862A9.693,9.693,0,0,1,20.473,9Z" transform="translate(-0.523 -0.051)" fill="#eb1700"/>
</svg>
