<svg xmlns="http://www.w3.org/2000/svg" width="20" height="20" viewBox="0 0 20 20">
  <path id="Path_15" data-name="Path 15" d="M10,20a9.738,9.738,0,0,1-3.9-.788A9.984,9.984,0,0,1,.788,13.9,9.738,9.738,0,0,1,0,10,9.738,9.738,0,0,1,.788,6.1,9.984,9.984,0,0,1,6.1.788,9.738,9.738,0,0,1,10,0a9.738,9.738,0,0,1,3.9.788A9.984,9.984,0,0,1,19.212,6.1,9.738,9.738,0,0,1,20,10v8a2.006,2.006,0,0,1-2,2Zm0-2a7.721,7.721,0,0,0,5.675-2.325A7.721,7.721,0,0,0,18,10a7.721,7.721,0,0,0-2.325-5.675A7.721,7.721,0,0,0,10,2,7.721,7.721,0,0,0,4.325,4.325,7.721,7.721,0,0,0,2,10a8.319,8.319,0,0,0,.075,1.125A7.689,7.689,0,0,0,2.3,12.2L6,8.5l3.3,2.775L12.575,8H11V6h5v5H14V9.425L9.4,14,6.125,11.2l-2.95,2.95a8.118,8.118,0,0,0,2.837,2.788A7.656,7.656,0,0,0,10,18Zm7.5.5a.982.982,0,1,0-.712-.288A.968.968,0,0,0,17.5,18.5Z" fill="#1c1b1f"/>
</svg>
